# xmcd CD database file
#
# Track frame offsets:
#	150
#	9986
#	24056
#	34996
#	47133
#	62369
#	75279
#	87993
#	98984
#	111489
#	122835
#	138735
#	150935
#	164245
#	176679
#	188099
#	199967
#	209826
#
# Disc length: 2938 seconds
#
# Revision: 0
# Processed by: cddbd v1.5.2PL0 Copyright (c) Steve Scherf et al.
# Submitted via: jetAudio 7
#
DISCID=f50b7812
DTITLE=Ismeretlen előadó - Ismeretlen album
DYEAR=1900
DGENRE=Ismeretlen műfaj
TTITLE0=1. szám
TTITLE1=2. szám
TTITLE2=3. szám
TTITLE3=4. szám
TTITLE4=5. szám
TTITLE5=6. szám
TTITLE6=7. szám
TTITLE7=8. szám
TTITLE8=9. szám
TTITLE9=10. szám
TTITLE10=11. szám
TTITLE11=12. szám
TTITLE12=13. szám
TTITLE13=14. szám
TTITLE14=15. szám
TTITLE15=16. szám
TTITLE16=17. szám
TTITLE17=18. szám
EXTD=
EXTT0=
EXTT1=
EXTT2=
EXTT3=
EXTT4=
EXTT5=
EXTT6=
EXTT7=
EXTT8=
EXTT9=
EXTT10=
EXTT11=
EXTT12=
EXTT13=
EXTT14=
EXTT15=
EXTT16=
EXTT17=
PLAYORDER=
